
	<svg xmlns="http://www.w3.org/2000/svg" xmlns:xlink="http://www.w3.org/1999/xlink" version="1.1" width="256" height="256" viewBox="0 0 100 100">


		<defs>
			<g id="background" transform="matrix( 2, 0, 0, 2, -76.6,-218) ">
			<path d=" M 63.3 109 Q 52.95 109 45.65 116.3 38.3 123.6 38.3 134 38.3 144.35 45.65 151.7 52.95 159 63.3 159 73.65 159 81 151.7 88.3 144.35 88.3 134 88.3 123.6 81 116.3 73.65 109 63.3 109 Z"/>
		</g><g id="middle-1" transform="matrix( 2, 0, 0, 2, 19.6,21) ">
			<path fill="#000000" fill-opacity="0.4" stroke="none" d=" M 40.2 14.5 Q 40.2 12.05 39.75 9.7 L 30.05 0 20.4 18.25 0 28.55 10.45 39 Q 13.05 39.5 15.2 39.5 25.55 39.5 32.9 32.2 40.2 24.85 40.2 14.5 Z"/>
		</g><g id="middle-2" transform="matrix( 2, 0, 0, 2, -76.6,-218) ">
			<path fill="#FFFFFF" stroke="none" d=" M 77.95 119.3 Q 71.9 113.2 63.3 113.2 54.7 113.2 48.65 119.3 42.55 125.4 42.55 134 42.55 142.6 48.65 148.65 54.7 154.75 63.3 154.75 71.9 154.75 77.95 148.65 84.05 142.6 84.05 134 84.05 125.4 77.95 119.3 Z"/>
		</g><mask id="mask">
			<g transform="matrix( 2, 0, 0, 2, -76.6,-218) ">
				<path fill="#FFFFFF" stroke="none" d=" M 77.95 119.3 Q 71.9 113.2 63.3 113.2 54.7 113.2 48.65 119.3 42.55 125.4 42.55 134 42.55 142.6 48.65 148.65 54.7 154.75 63.3 154.75 71.9 154.75 77.95 148.65 84.05 142.6 84.05 134 84.05 125.4 77.95 119.3 Z"/>
			</g>
		</mask>
			
	<linearGradient id="background-gradient" x1="0" y1="0" y2="1" x2="0" >
		<stop stop-color="#f1af31" offset="0%"/>
		<stop stop-color="#f1af31" offset="100%"/>
	</linearGradient>

			
			
			<g transform="scale(0.984727009694834) translate(-98.4489974975586 -95.99399948120117)" id="picture"><path d="M191.875 131.875l-41.458 46.667a2.231 2.231 0 0 1-2.917.208l-20.208-18.542c-.834-.833-2.084-.625-2.917.209l-22.917 30.625c-.625.833-.416 1.666.834 1.666h88.958c1.042 0 2.083-1.041 2.083-2.083V132.5c0-1.25-.625-1.458-1.458-.625zm6.042-24.583h-16.042c-1.042 0-1.458.625-.625 1.458l6.042 5.833-37.5 42.292a2.231 2.231 0 0 1-2.917.208l-20.625-18.958c-.833-.833-2.083-.625-2.917.208l-2.5 3.334c-.625.833-1.875 2.291-2.5 3.333l-17.083 22.292c-.625.833-1.25 2.5-1.25 3.75v10.625l1.25-1.667 23.125-30.625c.625-.833 1.875-1.042 2.917-.208l20.208 18.541c.833.834 2.083.625 2.917-.208l41.458-46.667c.208-.208.417-.625.625-1.041l6.042 6.041c.833.834 1.458.625 1.458-.625v-15.833c0-1.042-1.042-2.083-2.083-2.083z M169.273 103.077h-14.029v-1.684c0-.224-.112-.336-.224-.449s-.337-.112-.45-.112l-17.956 4.49c-.225.112-.449.336-.449.56v23.57c0 .224.224.448.449.56l17.957 3.367h.112c.112 0 .225 0 .337-.112.112-.112.224-.225.224-.449v-1.683h14.03c.336 0 .56-.225.56-.562v-26.935c0-.337-.224-.561-.56-.561zm-17.396 9.764l-3.367 10.1c-.112.225-.336.337-.56.337s-.45-.224-.562-.449l-1.683-6.172c-.113-.45-.898-.45-1.123 0l-1.683 6.172c-.112.225-.225.45-.561.45s-.45-.225-.45-.337l-3.366-10.101c-.112-.337.112-.561.337-.674h.224c.224 0 .449.113.561.337l2.245 6.622c.112.224.336.337.56.337s.45-.225.562-.45l1.796-6.509c.112-.449.898-.449 1.122 0l1.796 6.51c.112.224.224.449.56.449a.617.617 0 0 0 .562-.337l2.245-6.622c.112-.337.449-.449.673-.337 0 0 .225.337.112.674zm16.835 17.171h-13.468v-3.367h10.662c.337 0 .561-.224.561-.56s-.224-.562-.56-.562h-10.663v-3.367h10.662c.337 0 .561-.224.561-.561s-.224-.561-.56-.561h-10.663v-3.367h10.662c.337 0 .561-.225.561-.561s-.224-.562-.56-.562h-10.663v-3.366h10.662c.337 0 .561-.225.561-.562s-.224-.56-.56-.56h-10.663v-3.368h10.662c.337 0 .561-.224.561-.56s-.224-.562-.56-.562h-10.663v-3.367h13.468v25.813zM131 103.323h-13.793v-1.656c0-.22-.11-.33-.22-.44s-.332-.111-.442-.111l-17.655 4.413c-.22.11-.441.331-.441.552v23.172c0 .22.22.442.441.552l17.655 3.31h.11c.11 0 .22 0 .331-.11.11-.11.22-.22.22-.442v-1.655H131c.33 0 .552-.22.552-.551v-26.483c0-.33-.221-.551-.552-.551zm-.552 22.068h-7.724v-3.31h7.724v3.31zm-26.372-3.09l2.98-4.965c.11-.22.11-.441 0-.552l-2.98-4.965c-.11-.11-.11-.22-.11-.331s.11-.22.22-.331a.583.583 0 0 1 .773.22l2.317 3.973c.22.331.772.331.993 0l2.317-3.972c.11-.221.552-.331.773-.221.22 0 .33.22.33.331 0 .11 0 .331-.11.441l-2.979 4.966c-.11.22-.11.441 0 .551l2.98 4.966c.11.11.11.22.11.33s-.11.222-.22.332a.582.582 0 0 1-.773-.22l-2.318-3.973c-.11-.22-.33-.22-.44-.22s-.332.11-.442.22l-2.317 3.972c-.11.221-.552.331-.773.221-.33 0-.441-.11-.441-.331 0-.11 0-.22.11-.441zm13.13-4.634h4.415v3.31h-4.414v-3.31zm0-1.103v-3.31h4.415v3.31h-4.414zm5.518-3.31h7.724v3.31h-7.724v-3.31zm7.724-1.104h-7.724v-3.31h7.724v3.31zm-8.827 0h-4.414v-3.31h4.414v3.31zm-4.414 9.93h4.414v3.311h-4.414v-3.31zm5.517-1.103v-3.31h7.724v3.31h-7.724zm7.724-16.551v3.31h-7.724v-3.31h7.724zm-8.827 0v3.31h-4.414v-3.31h4.414zm-4.414 22.069h4.414v3.31h-4.414v-3.31zm13.241 3.31h-7.724v-3.31h7.724v3.31z"/></g>
			
	<linearGradient id="picture-gradient" x1="0" y1="0" y2="1" x2="0" >
		<stop stop-color="#114e73" offset="0%"/>
		<stop stop-color="#114e73" offset="100%"/>
	</linearGradient>

		</defs>

		

			<use xlink:href="#background" fill="url(#background-gradient)" />

		<use xlink:href="#middle-1" /><use xlink:href="#middle-2" />

			<g mask="url(#mask)">
				<g transform="
				        translate(
                                50 50
)
                            translate(0 0)  scale(0.5)  
                            translate(
                                -50 -50
)">
						<use xlink:href="#picture" fill="url(#picture-gradient)"  />
				</g>
			</g>

		



	</svg>
